<mxfile host="app.diagrams.net" agent="Mozilla/5.0 (Windows NT 10.0; Win64; x64) AppleWebKit/537.36 (KHTML, like Gecko) Chrome/139.0.0.0 Safari/537.36 Edg/139.0.0.0" version="28.1.0" pages="6">
  <diagram name="Page-1" id="hnz36cSmPEmbQJXrFAYA">
    <mxGraphModel dx="1418" dy="756" grid="1" gridSize="10" guides="1" tooltips="1" connect="1" arrows="1" fold="1" page="1" pageScale="1" pageWidth="850" pageHeight="1100" math="0" shadow="0">
      <root>
        <mxCell id="0" />
        <mxCell id="1" parent="0" />
        <mxCell id="tKoQy56-oaU0wiJfoEDO-4" style="edgeStyle=orthogonalEdgeStyle;rounded=0;orthogonalLoop=1;jettySize=auto;html=1;entryX=0;entryY=0.5;entryDx=0;entryDy=0;" parent="1" source="tKoQy56-oaU0wiJfoEDO-1" target="tKoQy56-oaU0wiJfoEDO-2" edge="1">
          <mxGeometry relative="1" as="geometry" />
        </mxCell>
        <mxCell id="tKoQy56-oaU0wiJfoEDO-1" value="CostCenter" style="rounded=1;whiteSpace=wrap;html=1;" parent="1" vertex="1">
          <mxGeometry x="140" y="450" width="120" height="60" as="geometry" />
        </mxCell>
        <mxCell id="tKoQy56-oaU0wiJfoEDO-12" style="edgeStyle=orthogonalEdgeStyle;rounded=0;orthogonalLoop=1;jettySize=auto;html=1;entryX=0;entryY=0.5;entryDx=0;entryDy=0;" parent="1" source="tKoQy56-oaU0wiJfoEDO-2" target="tKoQy56-oaU0wiJfoEDO-3" edge="1">
          <mxGeometry relative="1" as="geometry" />
        </mxCell>
        <mxCell id="tKoQy56-oaU0wiJfoEDO-2" value="Budget" style="rounded=1;whiteSpace=wrap;html=1;" parent="1" vertex="1">
          <mxGeometry x="300" y="510" width="120" height="60" as="geometry" />
        </mxCell>
        <mxCell id="tKoQy56-oaU0wiJfoEDO-3" value="BudgetDetail&lt;div&gt;-------------------&lt;/div&gt;&lt;div&gt;Status&lt;/div&gt;&lt;div&gt;year&lt;/div&gt;" style="rounded=1;whiteSpace=wrap;html=1;" parent="1" vertex="1">
          <mxGeometry x="510" y="600" width="120" height="60" as="geometry" />
        </mxCell>
        <mxCell id="tKoQy56-oaU0wiJfoEDO-6" value="Transactions" style="rounded=1;whiteSpace=wrap;html=1;" parent="1" vertex="1">
          <mxGeometry x="300" y="660" width="120" height="60" as="geometry" />
        </mxCell>
        <mxCell id="tKoQy56-oaU0wiJfoEDO-8" value="" style="edgeStyle=orthogonalEdgeStyle;rounded=0;orthogonalLoop=1;jettySize=auto;html=1;" parent="1" source="tKoQy56-oaU0wiJfoEDO-7" target="tKoQy56-oaU0wiJfoEDO-1" edge="1">
          <mxGeometry relative="1" as="geometry" />
        </mxCell>
        <mxCell id="tKoQy56-oaU0wiJfoEDO-7" value="CostCenterCategory" style="rounded=1;whiteSpace=wrap;html=1;" parent="1" vertex="1">
          <mxGeometry x="140" y="310" width="120" height="60" as="geometry" />
        </mxCell>
        <mxCell id="tKoQy56-oaU0wiJfoEDO-14" style="edgeStyle=orthogonalEdgeStyle;rounded=0;orthogonalLoop=1;jettySize=auto;html=1;" parent="1" source="tKoQy56-oaU0wiJfoEDO-9" target="tKoQy56-oaU0wiJfoEDO-13" edge="1">
          <mxGeometry relative="1" as="geometry" />
        </mxCell>
        <mxCell id="tKoQy56-oaU0wiJfoEDO-9" value="User" style="rounded=1;whiteSpace=wrap;html=1;" parent="1" vertex="1">
          <mxGeometry x="480" y="120" width="120" height="60" as="geometry" />
        </mxCell>
        <mxCell id="tKoQy56-oaU0wiJfoEDO-15" style="edgeStyle=orthogonalEdgeStyle;rounded=0;orthogonalLoop=1;jettySize=auto;html=1;entryX=0.5;entryY=1;entryDx=0;entryDy=0;" parent="1" source="tKoQy56-oaU0wiJfoEDO-10" target="tKoQy56-oaU0wiJfoEDO-13" edge="1">
          <mxGeometry relative="1" as="geometry">
            <mxPoint x="690" y="390" as="targetPoint" />
          </mxGeometry>
        </mxCell>
        <mxCell id="tKoQy56-oaU0wiJfoEDO-10" value="Role" style="rounded=1;whiteSpace=wrap;html=1;" parent="1" vertex="1">
          <mxGeometry x="480" y="300" width="120" height="60" as="geometry" />
        </mxCell>
        <mxCell id="tKoQy56-oaU0wiJfoEDO-13" value="UserRole" style="rounded=1;whiteSpace=wrap;html=1;" parent="1" vertex="1">
          <mxGeometry x="640" y="200" width="120" height="60" as="geometry" />
        </mxCell>
      </root>
    </mxGraphModel>
  </diagram>
  <diagram name="SVES" id="HHgyaQfr0rzNXflkBqJD">
    <mxGraphModel dx="1418" dy="752" grid="1" gridSize="10" guides="1" tooltips="1" connect="1" arrows="1" fold="1" page="1" pageScale="1" pageWidth="850" pageHeight="1100" math="0" shadow="0">
      <root>
        <mxCell id="0" />
        <mxCell id="1" parent="0" />
        <mxCell id="MLg9Y7SFyvmeRMdnVMhF-10" style="edgeStyle=orthogonalEdgeStyle;rounded=0;orthogonalLoop=1;jettySize=auto;html=1;" parent="1" source="MLg9Y7SFyvmeRMdnVMhF-1" target="MLg9Y7SFyvmeRMdnVMhF-5" edge="1">
          <mxGeometry relative="1" as="geometry" />
        </mxCell>
        <mxCell id="MLg9Y7SFyvmeRMdnVMhF-1" value="AWARE system" style="rounded=1;whiteSpace=wrap;html=1;" parent="1" vertex="1">
          <mxGeometry x="230" y="60" width="120" height="60" as="geometry" />
        </mxCell>
        <mxCell id="MLg9Y7SFyvmeRMdnVMhF-2" value="Actor" style="shape=umlActor;verticalLabelPosition=bottom;verticalAlign=top;html=1;outlineConnect=0;" parent="1" vertex="1">
          <mxGeometry x="120" y="70" width="30" height="60" as="geometry" />
        </mxCell>
        <mxCell id="MLg9Y7SFyvmeRMdnVMhF-4" style="edgeStyle=orthogonalEdgeStyle;rounded=0;orthogonalLoop=1;jettySize=auto;html=1;entryX=-0.167;entryY=0.667;entryDx=0;entryDy=0;entryPerimeter=0;" parent="1" source="MLg9Y7SFyvmeRMdnVMhF-2" target="MLg9Y7SFyvmeRMdnVMhF-1" edge="1">
          <mxGeometry relative="1" as="geometry" />
        </mxCell>
        <mxCell id="MLg9Y7SFyvmeRMdnVMhF-11" style="edgeStyle=orthogonalEdgeStyle;rounded=0;orthogonalLoop=1;jettySize=auto;html=1;" parent="1" source="MLg9Y7SFyvmeRMdnVMhF-5" target="MLg9Y7SFyvmeRMdnVMhF-8" edge="1">
          <mxGeometry relative="1" as="geometry" />
        </mxCell>
        <mxCell id="MLg9Y7SFyvmeRMdnVMhF-5" value="AWARE DB" style="shape=cylinder3;whiteSpace=wrap;html=1;boundedLbl=1;backgroundOutline=1;size=15;" parent="1" vertex="1">
          <mxGeometry x="570" y="50" width="60" height="80" as="geometry" />
        </mxCell>
        <mxCell id="MLg9Y7SFyvmeRMdnVMhF-7" value="SSA System" style="rounded=1;whiteSpace=wrap;html=1;" parent="1" vertex="1">
          <mxGeometry x="60" y="260" width="120" height="60" as="geometry" />
        </mxCell>
        <mxCell id="MLg9Y7SFyvmeRMdnVMhF-13" style="edgeStyle=orthogonalEdgeStyle;rounded=0;orthogonalLoop=1;jettySize=auto;html=1;entryX=1;entryY=0.5;entryDx=0;entryDy=0;" parent="1" source="MLg9Y7SFyvmeRMdnVMhF-8" target="MLg9Y7SFyvmeRMdnVMhF-12" edge="1">
          <mxGeometry relative="1" as="geometry" />
        </mxCell>
        <mxCell id="MLg9Y7SFyvmeRMdnVMhF-8" value="SVES request process&lt;div&gt;Friday 4 pm&lt;/div&gt;" style="ellipse;whiteSpace=wrap;html=1;" parent="1" vertex="1">
          <mxGeometry x="490" y="210" width="120" height="80" as="geometry" />
        </mxCell>
        <mxCell id="MLg9Y7SFyvmeRMdnVMhF-15" style="edgeStyle=orthogonalEdgeStyle;rounded=0;orthogonalLoop=1;jettySize=auto;html=1;entryX=1;entryY=0.5;entryDx=0;entryDy=0;" parent="1" source="MLg9Y7SFyvmeRMdnVMhF-12" target="MLg9Y7SFyvmeRMdnVMhF-7" edge="1">
          <mxGeometry relative="1" as="geometry" />
        </mxCell>
        <mxCell id="MLg9Y7SFyvmeRMdnVMhF-12" value="Request File" style="shape=document;whiteSpace=wrap;html=1;boundedLbl=1;" parent="1" vertex="1">
          <mxGeometry x="270" y="210" width="120" height="80" as="geometry" />
        </mxCell>
        <mxCell id="MLg9Y7SFyvmeRMdnVMhF-14" value="Response File" style="shape=document;whiteSpace=wrap;html=1;boundedLbl=1;" parent="1" vertex="1">
          <mxGeometry x="270" y="350" width="120" height="80" as="geometry" />
        </mxCell>
        <mxCell id="MLg9Y7SFyvmeRMdnVMhF-16" style="edgeStyle=orthogonalEdgeStyle;rounded=0;orthogonalLoop=1;jettySize=auto;html=1;entryX=-0.05;entryY=0.7;entryDx=0;entryDy=0;entryPerimeter=0;" parent="1" source="MLg9Y7SFyvmeRMdnVMhF-7" target="MLg9Y7SFyvmeRMdnVMhF-14" edge="1">
          <mxGeometry relative="1" as="geometry">
            <Array as="points">
              <mxPoint x="120" y="390" />
              <mxPoint x="264" y="390" />
            </Array>
          </mxGeometry>
        </mxCell>
        <mxCell id="MLg9Y7SFyvmeRMdnVMhF-17" value="SVES response process&lt;div&gt;Monday - Friday 7:12 am&lt;/div&gt;" style="ellipse;whiteSpace=wrap;html=1;" parent="1" vertex="1">
          <mxGeometry x="490" y="350" width="120" height="80" as="geometry" />
        </mxCell>
        <mxCell id="MLg9Y7SFyvmeRMdnVMhF-18" style="edgeStyle=orthogonalEdgeStyle;rounded=0;orthogonalLoop=1;jettySize=auto;html=1;entryX=0;entryY=0.6;entryDx=0;entryDy=0;entryPerimeter=0;" parent="1" source="MLg9Y7SFyvmeRMdnVMhF-14" target="MLg9Y7SFyvmeRMdnVMhF-17" edge="1">
          <mxGeometry relative="1" as="geometry" />
        </mxCell>
        <mxCell id="MLg9Y7SFyvmeRMdnVMhF-23" style="edgeStyle=orthogonalEdgeStyle;rounded=0;orthogonalLoop=1;jettySize=auto;html=1;entryX=1;entryY=0.5;entryDx=0;entryDy=0;" parent="1" source="MLg9Y7SFyvmeRMdnVMhF-19" target="MLg9Y7SFyvmeRMdnVMhF-22" edge="1">
          <mxGeometry relative="1" as="geometry">
            <Array as="points">
              <mxPoint x="740" y="526" />
            </Array>
          </mxGeometry>
        </mxCell>
        <mxCell id="MLg9Y7SFyvmeRMdnVMhF-19" value="SVES database" style="shape=cylinder3;whiteSpace=wrap;html=1;boundedLbl=1;backgroundOutline=1;size=15;" parent="1" vertex="1">
          <mxGeometry x="710" y="270" width="60" height="80" as="geometry" />
        </mxCell>
        <mxCell id="MLg9Y7SFyvmeRMdnVMhF-20" style="edgeStyle=orthogonalEdgeStyle;rounded=0;orthogonalLoop=1;jettySize=auto;html=1;entryX=0;entryY=0.5;entryDx=0;entryDy=0;entryPerimeter=0;" parent="1" source="MLg9Y7SFyvmeRMdnVMhF-17" target="MLg9Y7SFyvmeRMdnVMhF-19" edge="1">
          <mxGeometry relative="1" as="geometry" />
        </mxCell>
        <mxCell id="MLg9Y7SFyvmeRMdnVMhF-21" value="Azure Managed Instance" style="image;aspect=fixed;html=1;points=[];align=center;fontSize=12;image=img/lib/azure2/databases/SQL_Database.svg;" parent="1" vertex="1">
          <mxGeometry x="102" y="486" width="48" height="64" as="geometry" />
        </mxCell>
        <mxCell id="MLg9Y7SFyvmeRMdnVMhF-22" value="SVES refresh process&lt;div&gt;Monday - Friday 7:12 am&lt;/div&gt;" style="ellipse;whiteSpace=wrap;html=1;" parent="1" vertex="1">
          <mxGeometry x="500" y="486" width="120" height="80" as="geometry" />
        </mxCell>
        <mxCell id="MLg9Y7SFyvmeRMdnVMhF-26" value="SVES System" style="swimlane;whiteSpace=wrap;html=1;" parent="1" vertex="1">
          <mxGeometry x="210" y="180" width="440" height="270" as="geometry" />
        </mxCell>
        <mxCell id="MLg9Y7SFyvmeRMdnVMhF-24" style="edgeStyle=orthogonalEdgeStyle;rounded=0;orthogonalLoop=1;jettySize=auto;html=1;entryX=0.875;entryY=0.625;entryDx=0;entryDy=0;entryPerimeter=0;" parent="1" source="MLg9Y7SFyvmeRMdnVMhF-22" target="MLg9Y7SFyvmeRMdnVMhF-21" edge="1">
          <mxGeometry relative="1" as="geometry" />
        </mxCell>
      </root>
    </mxGraphModel>
  </diagram>
  <diagram name="Future SVES" id="g5-uF021SCIoa6E54QiZ">
    <mxGraphModel dx="1418" dy="752" grid="1" gridSize="10" guides="1" tooltips="1" connect="1" arrows="1" fold="1" page="1" pageScale="1" pageWidth="850" pageHeight="1100" math="0" shadow="0">
      <root>
        <mxCell id="0" />
        <mxCell id="1" parent="0" />
        <mxCell id="gPIpEHQpolBbuwWLKx7v-23" style="edgeStyle=orthogonalEdgeStyle;rounded=0;orthogonalLoop=1;jettySize=auto;html=1;" parent="1" source="gPIpEHQpolBbuwWLKx7v-24" target="gPIpEHQpolBbuwWLKx7v-28" edge="1">
          <mxGeometry relative="1" as="geometry" />
        </mxCell>
        <mxCell id="gPIpEHQpolBbuwWLKx7v-24" value="AWARE system" style="rounded=1;whiteSpace=wrap;html=1;" parent="1" vertex="1">
          <mxGeometry x="250" y="250" width="120" height="60" as="geometry" />
        </mxCell>
        <mxCell id="gPIpEHQpolBbuwWLKx7v-25" value="Actor" style="shape=umlActor;verticalLabelPosition=bottom;verticalAlign=top;html=1;outlineConnect=0;" parent="1" vertex="1">
          <mxGeometry x="140" y="260" width="30" height="60" as="geometry" />
        </mxCell>
        <mxCell id="gPIpEHQpolBbuwWLKx7v-26" style="edgeStyle=orthogonalEdgeStyle;rounded=0;orthogonalLoop=1;jettySize=auto;html=1;entryX=-0.167;entryY=0.667;entryDx=0;entryDy=0;entryPerimeter=0;" parent="1" source="gPIpEHQpolBbuwWLKx7v-25" target="gPIpEHQpolBbuwWLKx7v-24" edge="1">
          <mxGeometry relative="1" as="geometry" />
        </mxCell>
        <mxCell id="gPIpEHQpolBbuwWLKx7v-27" style="edgeStyle=orthogonalEdgeStyle;rounded=0;orthogonalLoop=1;jettySize=auto;html=1;" parent="1" source="gPIpEHQpolBbuwWLKx7v-28" edge="1">
          <mxGeometry relative="1" as="geometry">
            <mxPoint x="570" y="400" as="targetPoint" />
          </mxGeometry>
        </mxCell>
        <mxCell id="gPIpEHQpolBbuwWLKx7v-28" value="AWARE DB" style="shape=cylinder3;whiteSpace=wrap;html=1;boundedLbl=1;backgroundOutline=1;size=15;" parent="1" vertex="1">
          <mxGeometry x="590" y="240" width="60" height="80" as="geometry" />
        </mxCell>
        <mxCell id="gPIpEHQpolBbuwWLKx7v-29" value="SSA System" style="rounded=1;whiteSpace=wrap;html=1;" parent="1" vertex="1">
          <mxGeometry x="80" y="450" width="120" height="60" as="geometry" />
        </mxCell>
        <mxCell id="gPIpEHQpolBbuwWLKx7v-32" style="edgeStyle=orthogonalEdgeStyle;rounded=0;orthogonalLoop=1;jettySize=auto;html=1;entryX=1;entryY=0.5;entryDx=0;entryDy=0;exitX=0;exitY=0.5;exitDx=0;exitDy=0;exitPerimeter=0;" parent="1" source="gPIpEHQpolBbuwWLKx7v-46" target="gPIpEHQpolBbuwWLKx7v-29" edge="1">
          <mxGeometry relative="1" as="geometry">
            <mxPoint x="290" y="440" as="sourcePoint" />
          </mxGeometry>
        </mxCell>
        <mxCell id="gPIpEHQpolBbuwWLKx7v-38" style="edgeStyle=orthogonalEdgeStyle;rounded=0;orthogonalLoop=1;jettySize=auto;html=1;entryX=1;entryY=0.5;entryDx=0;entryDy=0;" parent="1" source="gPIpEHQpolBbuwWLKx7v-39" edge="1">
          <mxGeometry relative="1" as="geometry">
            <Array as="points">
              <mxPoint x="760" y="716" />
            </Array>
            <mxPoint x="640" y="716" as="targetPoint" />
          </mxGeometry>
        </mxCell>
        <mxCell id="gPIpEHQpolBbuwWLKx7v-39" value="SVES database" style="shape=cylinder3;whiteSpace=wrap;html=1;boundedLbl=1;backgroundOutline=1;size=15;" parent="1" vertex="1">
          <mxGeometry x="730" y="460" width="60" height="80" as="geometry" />
        </mxCell>
        <mxCell id="gPIpEHQpolBbuwWLKx7v-40" style="edgeStyle=orthogonalEdgeStyle;rounded=0;orthogonalLoop=1;jettySize=auto;html=1;entryX=0;entryY=0.5;entryDx=0;entryDy=0;entryPerimeter=0;" parent="1" target="gPIpEHQpolBbuwWLKx7v-39" edge="1">
          <mxGeometry relative="1" as="geometry">
            <mxPoint x="610" y="580" as="sourcePoint" />
            <Array as="points">
              <mxPoint x="610" y="581" />
              <mxPoint x="650" y="581" />
              <mxPoint x="650" y="500" />
            </Array>
          </mxGeometry>
        </mxCell>
        <mxCell id="gPIpEHQpolBbuwWLKx7v-41" value="Azure Managed Instance" style="image;aspect=fixed;html=1;points=[];align=center;fontSize=12;image=img/lib/azure2/databases/SQL_Database.svg;" parent="1" vertex="1">
          <mxGeometry x="122" y="676" width="48" height="64" as="geometry" />
        </mxCell>
        <mxCell id="gPIpEHQpolBbuwWLKx7v-43" value="SVES System" style="swimlane;whiteSpace=wrap;html=1;" parent="1" vertex="1">
          <mxGeometry x="240" y="380" width="440" height="270" as="geometry" />
        </mxCell>
        <mxCell id="gPIpEHQpolBbuwWLKx7v-46" value="Request file" style="verticalLabelPosition=bottom;html=1;verticalAlign=top;align=center;strokeColor=none;fillColor=#00BEF2;shape=mxgraph.azure.storage_blob;" parent="gPIpEHQpolBbuwWLKx7v-43" vertex="1">
          <mxGeometry x="95" y="45" width="50" height="45" as="geometry" />
        </mxCell>
        <mxCell id="qNEKp2SMUfAJs7Vq2Zbj-2" value="Request file" style="verticalLabelPosition=bottom;html=1;verticalAlign=top;align=center;strokeColor=none;fillColor=#00BEF2;shape=mxgraph.azure.storage_blob;" vertex="1" parent="gPIpEHQpolBbuwWLKx7v-43">
          <mxGeometry x="100" y="170" width="50" height="45" as="geometry" />
        </mxCell>
        <mxCell id="qNEKp2SMUfAJs7Vq2Zbj-5" value="SVES_Request_WebJob" style="image;aspect=fixed;html=1;points=[];align=center;fontSize=12;image=img/lib/azure2/other/Web_Jobs.svg;" vertex="1" parent="gPIpEHQpolBbuwWLKx7v-43">
          <mxGeometry x="290" y="33.5" width="66" height="68" as="geometry" />
        </mxCell>
        <mxCell id="qNEKp2SMUfAJs7Vq2Zbj-6" value="SVES_Response_WebJob" style="image;aspect=fixed;html=1;points=[];align=center;fontSize=12;image=img/lib/azure2/other/Web_Jobs.svg;" vertex="1" parent="gPIpEHQpolBbuwWLKx7v-43">
          <mxGeometry x="300" y="154" width="66" height="68" as="geometry" />
        </mxCell>
        <mxCell id="qNEKp2SMUfAJs7Vq2Zbj-9" style="edgeStyle=orthogonalEdgeStyle;rounded=0;orthogonalLoop=1;jettySize=auto;html=1;entryX=1;entryY=0.5;entryDx=0;entryDy=0;entryPerimeter=0;" edge="1" parent="gPIpEHQpolBbuwWLKx7v-43" source="qNEKp2SMUfAJs7Vq2Zbj-5" target="gPIpEHQpolBbuwWLKx7v-46">
          <mxGeometry relative="1" as="geometry" />
        </mxCell>
        <mxCell id="qNEKp2SMUfAJs7Vq2Zbj-10" style="edgeStyle=orthogonalEdgeStyle;rounded=0;orthogonalLoop=1;jettySize=auto;html=1;entryX=0.152;entryY=0.566;entryDx=0;entryDy=0;entryPerimeter=0;" edge="1" parent="gPIpEHQpolBbuwWLKx7v-43" source="qNEKp2SMUfAJs7Vq2Zbj-2" target="qNEKp2SMUfAJs7Vq2Zbj-6">
          <mxGeometry relative="1" as="geometry" />
        </mxCell>
        <mxCell id="gPIpEHQpolBbuwWLKx7v-44" style="edgeStyle=orthogonalEdgeStyle;rounded=0;orthogonalLoop=1;jettySize=auto;html=1;entryX=0.875;entryY=0.625;entryDx=0;entryDy=0;entryPerimeter=0;" parent="1" target="gPIpEHQpolBbuwWLKx7v-41" edge="1">
          <mxGeometry relative="1" as="geometry">
            <mxPoint x="520" y="716" as="sourcePoint" />
          </mxGeometry>
        </mxCell>
        <mxCell id="qNEKp2SMUfAJs7Vq2Zbj-3" style="edgeStyle=orthogonalEdgeStyle;rounded=0;orthogonalLoop=1;jettySize=auto;html=1;entryX=0;entryY=0.5;entryDx=0;entryDy=0;entryPerimeter=0;" edge="1" parent="1" source="gPIpEHQpolBbuwWLKx7v-29" target="qNEKp2SMUfAJs7Vq2Zbj-2">
          <mxGeometry relative="1" as="geometry">
            <Array as="points">
              <mxPoint x="140" y="573" />
              <mxPoint x="265" y="573" />
            </Array>
          </mxGeometry>
        </mxCell>
        <mxCell id="qNEKp2SMUfAJs7Vq2Zbj-11" value="SVES_Refresh_WebJob" style="image;aspect=fixed;html=1;points=[];align=center;fontSize=12;image=img/lib/azure2/other/Web_Jobs.svg;" vertex="1" parent="1">
          <mxGeometry x="550" y="676" width="66" height="68" as="geometry" />
        </mxCell>
      </root>
    </mxGraphModel>
  </diagram>
  <diagram name="SVES_Response" id="87zb0fhO8x1j4dfqQ1v4">
    <mxGraphModel dx="1418" dy="752" grid="1" gridSize="10" guides="1" tooltips="1" connect="1" arrows="1" fold="1" page="1" pageScale="1" pageWidth="850" pageHeight="1100" math="0" shadow="0">
      <root>
        <mxCell id="0" />
        <mxCell id="1" parent="0" />
        <mxCell id="rn0WZyYpXiQJ-BusRnu9-4" value="" style="edgeStyle=orthogonalEdgeStyle;rounded=0;orthogonalLoop=1;jettySize=auto;html=1;" edge="1" parent="1" source="rn0WZyYpXiQJ-BusRnu9-1" target="rn0WZyYpXiQJ-BusRnu9-3">
          <mxGeometry relative="1" as="geometry" />
        </mxCell>
        <mxCell id="rn0WZyYpXiQJ-BusRnu9-1" value="Delete Records in Staging table" style="rounded=1;whiteSpace=wrap;html=1;" vertex="1" parent="1">
          <mxGeometry x="350" y="20" width="120" height="60" as="geometry" />
        </mxCell>
        <mxCell id="rn0WZyYpXiQJ-BusRnu9-6" value="" style="edgeStyle=orthogonalEdgeStyle;rounded=0;orthogonalLoop=1;jettySize=auto;html=1;" edge="1" parent="1" source="rn0WZyYpXiQJ-BusRnu9-3" target="rn0WZyYpXiQJ-BusRnu9-5">
          <mxGeometry relative="1" as="geometry" />
        </mxCell>
        <mxCell id="rn0WZyYpXiQJ-BusRnu9-3" value="Load No Benefits record" style="whiteSpace=wrap;html=1;rounded=1;" vertex="1" parent="1">
          <mxGeometry x="110" y="110" width="120" height="60" as="geometry" />
        </mxCell>
        <mxCell id="rn0WZyYpXiQJ-BusRnu9-8" value="" style="edgeStyle=orthogonalEdgeStyle;rounded=0;orthogonalLoop=1;jettySize=auto;html=1;" edge="1" parent="1" source="rn0WZyYpXiQJ-BusRnu9-5" target="rn0WZyYpXiQJ-BusRnu9-7">
          <mxGeometry relative="1" as="geometry" />
        </mxCell>
        <mxCell id="rn0WZyYpXiQJ-BusRnu9-5" value="Load Tye II records" style="whiteSpace=wrap;html=1;rounded=1;" vertex="1" parent="1">
          <mxGeometry x="290" y="110" width="120" height="60" as="geometry" />
        </mxCell>
        <mxCell id="rn0WZyYpXiQJ-BusRnu9-10" value="" style="edgeStyle=orthogonalEdgeStyle;rounded=0;orthogonalLoop=1;jettySize=auto;html=1;" edge="1" parent="1" source="rn0WZyYpXiQJ-BusRnu9-7" target="rn0WZyYpXiQJ-BusRnu9-9">
          <mxGeometry relative="1" as="geometry" />
        </mxCell>
        <mxCell id="rn0WZyYpXiQJ-BusRnu9-7" value="Load Type XVI records" style="whiteSpace=wrap;html=1;rounded=1;" vertex="1" parent="1">
          <mxGeometry x="450" y="110" width="120" height="60" as="geometry" />
        </mxCell>
        <mxCell id="rn0WZyYpXiQJ-BusRnu9-12" value="" style="edgeStyle=orthogonalEdgeStyle;rounded=0;orthogonalLoop=1;jettySize=auto;html=1;" edge="1" parent="1" source="rn0WZyYpXiQJ-BusRnu9-9" target="rn0WZyYpXiQJ-BusRnu9-11">
          <mxGeometry relative="1" as="geometry">
            <Array as="points">
              <mxPoint x="680" y="240" />
            </Array>
          </mxGeometry>
        </mxCell>
        <mxCell id="rn0WZyYpXiQJ-BusRnu9-9" value="Load both Type II and Type XVI records" style="whiteSpace=wrap;html=1;rounded=1;" vertex="1" parent="1">
          <mxGeometry x="620" y="110" width="120" height="60" as="geometry" />
        </mxCell>
        <mxCell id="rn0WZyYpXiQJ-BusRnu9-14" value="" style="edgeStyle=orthogonalEdgeStyle;rounded=0;orthogonalLoop=1;jettySize=auto;html=1;" edge="1" parent="1" source="rn0WZyYpXiQJ-BusRnu9-11" target="rn0WZyYpXiQJ-BusRnu9-13">
          <mxGeometry relative="1" as="geometry" />
        </mxCell>
        <mxCell id="rn0WZyYpXiQJ-BusRnu9-11" value="Pre-Update Data" style="whiteSpace=wrap;html=1;rounded=1;" vertex="1" parent="1">
          <mxGeometry x="365" y="210" width="120" height="60" as="geometry" />
        </mxCell>
        <mxCell id="rn0WZyYpXiQJ-BusRnu9-16" value="" style="edgeStyle=orthogonalEdgeStyle;rounded=0;orthogonalLoop=1;jettySize=auto;html=1;" edge="1" parent="1" source="rn0WZyYpXiQJ-BusRnu9-13" target="rn0WZyYpXiQJ-BusRnu9-15">
          <mxGeometry relative="1" as="geometry" />
        </mxCell>
        <mxCell id="rn0WZyYpXiQJ-BusRnu9-13" value="Validate No Benefits" style="whiteSpace=wrap;html=1;rounded=1;" vertex="1" parent="1">
          <mxGeometry x="80" y="290" width="120" height="60" as="geometry" />
        </mxCell>
        <mxCell id="rn0WZyYpXiQJ-BusRnu9-18" value="" style="edgeStyle=orthogonalEdgeStyle;rounded=0;orthogonalLoop=1;jettySize=auto;html=1;" edge="1" parent="1" source="rn0WZyYpXiQJ-BusRnu9-15" target="rn0WZyYpXiQJ-BusRnu9-17">
          <mxGeometry relative="1" as="geometry" />
        </mxCell>
        <mxCell id="rn0WZyYpXiQJ-BusRnu9-15" value="Validate Title II" style="whiteSpace=wrap;html=1;rounded=1;" vertex="1" parent="1">
          <mxGeometry x="260" y="290" width="120" height="60" as="geometry" />
        </mxCell>
        <mxCell id="rn0WZyYpXiQJ-BusRnu9-20" value="" style="edgeStyle=orthogonalEdgeStyle;rounded=0;orthogonalLoop=1;jettySize=auto;html=1;" edge="1" parent="1" source="rn0WZyYpXiQJ-BusRnu9-17" target="rn0WZyYpXiQJ-BusRnu9-19">
          <mxGeometry relative="1" as="geometry" />
        </mxCell>
        <mxCell id="rn0WZyYpXiQJ-BusRnu9-17" value="Validate Title XVI" style="whiteSpace=wrap;html=1;rounded=1;" vertex="1" parent="1">
          <mxGeometry x="460" y="290" width="120" height="60" as="geometry" />
        </mxCell>
        <mxCell id="rn0WZyYpXiQJ-BusRnu9-22" value="" style="edgeStyle=orthogonalEdgeStyle;rounded=0;orthogonalLoop=1;jettySize=auto;html=1;" edge="1" parent="1" source="rn0WZyYpXiQJ-BusRnu9-19" target="rn0WZyYpXiQJ-BusRnu9-21">
          <mxGeometry relative="1" as="geometry">
            <Array as="points">
              <mxPoint x="710" y="410" />
            </Array>
          </mxGeometry>
        </mxCell>
        <mxCell id="rn0WZyYpXiQJ-BusRnu9-19" value="Validate both Title II and Title XVI" style="whiteSpace=wrap;html=1;rounded=1;" vertex="1" parent="1">
          <mxGeometry x="660" y="290" width="120" height="60" as="geometry" />
        </mxCell>
        <mxCell id="rn0WZyYpXiQJ-BusRnu9-24" value="" style="edgeStyle=orthogonalEdgeStyle;rounded=0;orthogonalLoop=1;jettySize=auto;html=1;" edge="1" parent="1" source="rn0WZyYpXiQJ-BusRnu9-21" target="rn0WZyYpXiQJ-BusRnu9-23">
          <mxGeometry relative="1" as="geometry" />
        </mxCell>
        <mxCell id="rn0WZyYpXiQJ-BusRnu9-21" value="Update Aware Log preUpdate data" style="whiteSpace=wrap;html=1;rounded=1;" vertex="1" parent="1">
          <mxGeometry x="365" y="380" width="120" height="60" as="geometry" />
        </mxCell>
        <mxCell id="rn0WZyYpXiQJ-BusRnu9-23" value="Create VES Stats Report" style="whiteSpace=wrap;html=1;rounded=1;" vertex="1" parent="1">
          <mxGeometry x="365" y="470" width="120" height="60" as="geometry" />
        </mxCell>
      </root>
    </mxGraphModel>
  </diagram>
  <diagram name="Budget Access DB Migration" id="s30KRb8CEY3pq3Ix69vf">
    <mxGraphModel dx="1418" dy="756" grid="1" gridSize="10" guides="1" tooltips="1" connect="1" arrows="1" fold="1" page="1" pageScale="1" pageWidth="850" pageHeight="1100" math="0" shadow="0">
      <root>
        <mxCell id="0" />
        <mxCell id="1" parent="0" />
        <mxCell id="8B_Xu-iO_OuKSOJBWG5p-13" style="edgeStyle=orthogonalEdgeStyle;rounded=0;orthogonalLoop=1;jettySize=auto;html=1;" parent="1" source="8B_Xu-iO_OuKSOJBWG5p-4" target="8B_Xu-iO_OuKSOJBWG5p-12" edge="1">
          <mxGeometry relative="1" as="geometry" />
        </mxCell>
        <mxCell id="8B_Xu-iO_OuKSOJBWG5p-14" value="1 to many&amp;nbsp;" style="edgeLabel;html=1;align=center;verticalAlign=middle;resizable=0;points=[];" parent="8B_Xu-iO_OuKSOJBWG5p-13" vertex="1" connectable="0">
          <mxGeometry x="0.1676" y="-1" relative="1" as="geometry">
            <mxPoint as="offset" />
          </mxGeometry>
        </mxCell>
        <mxCell id="8B_Xu-iO_OuKSOJBWG5p-37" style="edgeStyle=orthogonalEdgeStyle;rounded=0;orthogonalLoop=1;jettySize=auto;html=1;entryX=0.5;entryY=0;entryDx=0;entryDy=0;" parent="1" source="8B_Xu-iO_OuKSOJBWG5p-4" target="8B_Xu-iO_OuKSOJBWG5p-5" edge="1">
          <mxGeometry relative="1" as="geometry" />
        </mxCell>
        <mxCell id="8B_Xu-iO_OuKSOJBWG5p-49" value="1 to many" style="edgeLabel;html=1;align=center;verticalAlign=middle;resizable=0;points=[];" parent="8B_Xu-iO_OuKSOJBWG5p-37" vertex="1" connectable="0">
          <mxGeometry x="-0.1636" y="4" relative="1" as="geometry">
            <mxPoint as="offset" />
          </mxGeometry>
        </mxCell>
        <mxCell id="8B_Xu-iO_OuKSOJBWG5p-57" style="edgeStyle=orthogonalEdgeStyle;rounded=0;orthogonalLoop=1;jettySize=auto;html=1;entryX=0;entryY=0.5;entryDx=0;entryDy=0;" parent="1" source="8B_Xu-iO_OuKSOJBWG5p-4" target="8B_Xu-iO_OuKSOJBWG5p-55" edge="1">
          <mxGeometry relative="1" as="geometry">
            <Array as="points">
              <mxPoint x="380" y="270" />
            </Array>
          </mxGeometry>
        </mxCell>
        <mxCell id="8B_Xu-iO_OuKSOJBWG5p-58" value="1 to many" style="edgeLabel;html=1;align=center;verticalAlign=middle;resizable=0;points=[];" parent="8B_Xu-iO_OuKSOJBWG5p-57" vertex="1" connectable="0">
          <mxGeometry x="-0.0941" y="-1" relative="1" as="geometry">
            <mxPoint as="offset" />
          </mxGeometry>
        </mxCell>
        <mxCell id="8B_Xu-iO_OuKSOJBWG5p-4" value="CostCenter&lt;div&gt;--------------------&lt;br&gt;&lt;div&gt;Number&lt;/div&gt;&lt;div&gt;Description&lt;/div&gt;&lt;/div&gt;&lt;div&gt;FundingSourceId&lt;/div&gt;&lt;div&gt;ALICode&lt;/div&gt;&lt;div&gt;ProgramId&lt;/div&gt;&lt;div&gt;Reportings&lt;/div&gt;&lt;div&gt;GrantId&lt;/div&gt;&lt;div&gt;TypeOfExpenditures&lt;/div&gt;&lt;div&gt;Purpose&lt;/div&gt;&lt;div&gt;RulesInstruction&lt;/div&gt;" style="rounded=1;whiteSpace=wrap;html=1;" parent="1" vertex="1">
          <mxGeometry x="310" y="310" width="130" height="190" as="geometry" />
        </mxCell>
        <mxCell id="8B_Xu-iO_OuKSOJBWG5p-38" style="edgeStyle=orthogonalEdgeStyle;rounded=0;orthogonalLoop=1;jettySize=auto;html=1;" parent="1" source="8B_Xu-iO_OuKSOJBWG5p-5" target="8B_Xu-iO_OuKSOJBWG5p-31" edge="1">
          <mxGeometry relative="1" as="geometry" />
        </mxCell>
        <mxCell id="8B_Xu-iO_OuKSOJBWG5p-45" value="1 to many" style="edgeLabel;html=1;align=center;verticalAlign=middle;resizable=0;points=[];" parent="8B_Xu-iO_OuKSOJBWG5p-38" vertex="1" connectable="0">
          <mxGeometry x="0.5394" y="1" relative="1" as="geometry">
            <mxPoint as="offset" />
          </mxGeometry>
        </mxCell>
        <mxCell id="8B_Xu-iO_OuKSOJBWG5p-39" style="edgeStyle=orthogonalEdgeStyle;rounded=0;orthogonalLoop=1;jettySize=auto;html=1;entryX=0.5;entryY=0;entryDx=0;entryDy=0;" parent="1" source="8B_Xu-iO_OuKSOJBWG5p-5" target="8B_Xu-iO_OuKSOJBWG5p-9" edge="1">
          <mxGeometry relative="1" as="geometry" />
        </mxCell>
        <mxCell id="8B_Xu-iO_OuKSOJBWG5p-43" value="1 to many" style="edgeLabel;html=1;align=center;verticalAlign=middle;resizable=0;points=[];" parent="8B_Xu-iO_OuKSOJBWG5p-39" vertex="1" connectable="0">
          <mxGeometry x="0.4686" y="3" relative="1" as="geometry">
            <mxPoint as="offset" />
          </mxGeometry>
        </mxCell>
        <mxCell id="8B_Xu-iO_OuKSOJBWG5p-40" style="edgeStyle=orthogonalEdgeStyle;rounded=0;orthogonalLoop=1;jettySize=auto;html=1;" parent="1" source="8B_Xu-iO_OuKSOJBWG5p-5" target="8B_Xu-iO_OuKSOJBWG5p-33" edge="1">
          <mxGeometry relative="1" as="geometry" />
        </mxCell>
        <mxCell id="8B_Xu-iO_OuKSOJBWG5p-47" value="1 to many" style="edgeLabel;html=1;align=center;verticalAlign=middle;resizable=0;points=[];" parent="8B_Xu-iO_OuKSOJBWG5p-40" vertex="1" connectable="0">
          <mxGeometry x="0.5488" y="-2" relative="1" as="geometry">
            <mxPoint as="offset" />
          </mxGeometry>
        </mxCell>
        <mxCell id="8B_Xu-iO_OuKSOJBWG5p-41" style="edgeStyle=orthogonalEdgeStyle;rounded=0;orthogonalLoop=1;jettySize=auto;html=1;entryX=0.5;entryY=0;entryDx=0;entryDy=0;" parent="1" source="8B_Xu-iO_OuKSOJBWG5p-5" target="8B_Xu-iO_OuKSOJBWG5p-30" edge="1">
          <mxGeometry relative="1" as="geometry" />
        </mxCell>
        <mxCell id="8B_Xu-iO_OuKSOJBWG5p-44" value="1 to many" style="edgeLabel;html=1;align=center;verticalAlign=middle;resizable=0;points=[];" parent="8B_Xu-iO_OuKSOJBWG5p-41" vertex="1" connectable="0">
          <mxGeometry x="0.6435" y="2" relative="1" as="geometry">
            <mxPoint as="offset" />
          </mxGeometry>
        </mxCell>
        <mxCell id="8B_Xu-iO_OuKSOJBWG5p-50" style="edgeStyle=orthogonalEdgeStyle;rounded=0;orthogonalLoop=1;jettySize=auto;html=1;entryX=0.5;entryY=0;entryDx=0;entryDy=0;" parent="1" source="8B_Xu-iO_OuKSOJBWG5p-5" target="8B_Xu-iO_OuKSOJBWG5p-32" edge="1">
          <mxGeometry relative="1" as="geometry" />
        </mxCell>
        <mxCell id="8B_Xu-iO_OuKSOJBWG5p-51" value="&lt;span style=&quot;color: rgba(0, 0, 0, 0); font-family: monospace; font-size: 0px; text-align: start; background-color: rgb(27, 29, 30);&quot;&gt;%3CmxGraphModel%3E%3Croot%3E%3CmxCell%20id%3D%220%22%2F%3E%3CmxCell%20id%3D%221%22%20parent%3D%220%22%2F%3E%3CmxCell%20id%3D%222%22%20value%3D%221%20to%20many%22%20style%3D%22edgeLabel%3Bhtml%3D1%3Balign%3Dcenter%3BverticalAlign%3Dmiddle%3Bresizable%3D0%3Bpoints%3D%5B%5D%3B%22%20vertex%3D%221%22%20connectable%3D%220%22%20parent%3D%221%22%3E%3CmxGeometry%20x%3D%22426%22%20y%3D%22570%22%20as%3D%22geometry%22%2F%3E%3C%2FmxCell%3E%3C%2Froot%3E%3C%2FmxGraphModel%3E&lt;/span&gt;" style="edgeLabel;html=1;align=center;verticalAlign=middle;resizable=0;points=[];" parent="8B_Xu-iO_OuKSOJBWG5p-50" vertex="1" connectable="0">
          <mxGeometry x="0.3902" y="-5" relative="1" as="geometry">
            <mxPoint as="offset" />
          </mxGeometry>
        </mxCell>
        <mxCell id="8B_Xu-iO_OuKSOJBWG5p-52" value="1 to many" style="edgeLabel;html=1;align=center;verticalAlign=middle;resizable=0;points=[];" parent="8B_Xu-iO_OuKSOJBWG5p-50" vertex="1" connectable="0">
          <mxGeometry x="0.2984" relative="1" as="geometry">
            <mxPoint as="offset" />
          </mxGeometry>
        </mxCell>
        <mxCell id="8B_Xu-iO_OuKSOJBWG5p-5" value="Budget&lt;br&gt;&lt;div&gt;-----------------------&lt;/div&gt;&lt;div&gt;Year&lt;/div&gt;&lt;div&gt;Total&lt;/div&gt;&lt;div&gt;Notes&lt;/div&gt;" style="rounded=1;whiteSpace=wrap;html=1;" parent="1" vertex="1">
          <mxGeometry x="320" y="550" width="120" height="90" as="geometry" />
        </mxCell>
        <mxCell id="8B_Xu-iO_OuKSOJBWG5p-9" value="EqupimentBudget" style="whiteSpace=wrap;html=1;rounded=1;" parent="1" vertex="1">
          <mxGeometry x="60" y="770" width="120" height="60" as="geometry" />
        </mxCell>
        <mxCell id="8B_Xu-iO_OuKSOJBWG5p-12" value="Contact" style="rounded=1;whiteSpace=wrap;html=1;" parent="1" vertex="1">
          <mxGeometry x="520" y="450" width="120" height="60" as="geometry" />
        </mxCell>
        <mxCell id="8B_Xu-iO_OuKSOJBWG5p-29" value="" style="edgeStyle=orthogonalEdgeStyle;rounded=0;orthogonalLoop=1;jettySize=auto;html=1;" parent="1" source="8B_Xu-iO_OuKSOJBWG5p-15" target="8B_Xu-iO_OuKSOJBWG5p-12" edge="1">
          <mxGeometry relative="1" as="geometry" />
        </mxCell>
        <mxCell id="8B_Xu-iO_OuKSOJBWG5p-48" value="1 to many" style="edgeLabel;html=1;align=center;verticalAlign=middle;resizable=0;points=[];" parent="8B_Xu-iO_OuKSOJBWG5p-29" vertex="1" connectable="0">
          <mxGeometry x="-0.32" y="-1" relative="1" as="geometry">
            <mxPoint as="offset" />
          </mxGeometry>
        </mxCell>
        <mxCell id="8B_Xu-iO_OuKSOJBWG5p-15" value="ContactType" style="whiteSpace=wrap;html=1;rounded=1;" parent="1" vertex="1">
          <mxGeometry x="700" y="450" width="120" height="60" as="geometry" />
        </mxCell>
        <mxCell id="8B_Xu-iO_OuKSOJBWG5p-20" value="OaksChartField" style="rounded=1;whiteSpace=wrap;html=1;" parent="1" vertex="1">
          <mxGeometry x="110" y="390" width="120" height="60" as="geometry" />
        </mxCell>
        <mxCell id="8B_Xu-iO_OuKSOJBWG5p-21" value="OaksAccountCode" style="rounded=1;whiteSpace=wrap;html=1;" parent="1" vertex="1">
          <mxGeometry x="110" y="310" width="120" height="60" as="geometry" />
        </mxCell>
        <mxCell id="8B_Xu-iO_OuKSOJBWG5p-30" value="ConsultantBudget" style="whiteSpace=wrap;html=1;rounded=1;" parent="1" vertex="1">
          <mxGeometry x="210" y="770" width="120" height="60" as="geometry" />
        </mxCell>
        <mxCell id="8B_Xu-iO_OuKSOJBWG5p-31" value="RentBudget" style="whiteSpace=wrap;html=1;rounded=1;" parent="1" vertex="1">
          <mxGeometry x="365" y="770" width="120" height="60" as="geometry" />
        </mxCell>
        <mxCell id="8B_Xu-iO_OuKSOJBWG5p-32" value="TravelBudget" style="whiteSpace=wrap;html=1;rounded=1;" parent="1" vertex="1">
          <mxGeometry x="510" y="770" width="120" height="60" as="geometry" />
        </mxCell>
        <mxCell id="8B_Xu-iO_OuKSOJBWG5p-33" value="MaintenanceBudget" style="whiteSpace=wrap;html=1;rounded=1;" parent="1" vertex="1">
          <mxGeometry x="660" y="770" width="120" height="60" as="geometry" />
        </mxCell>
        <mxCell id="8B_Xu-iO_OuKSOJBWG5p-55" value="StrategicInitiave&lt;br&gt;&lt;div&gt;--------------------&lt;/div&gt;&lt;div&gt;Year&lt;/div&gt;&lt;div&gt;Detail&lt;/div&gt;" style="whiteSpace=wrap;html=1;rounded=1;" parent="1" vertex="1">
          <mxGeometry x="510" y="220" width="120" height="100" as="geometry" />
        </mxCell>
        <mxCell id="IkHTjljyscy81kLlPzbf-2" value="" style="edgeStyle=orthogonalEdgeStyle;rounded=0;orthogonalLoop=1;jettySize=auto;html=1;" edge="1" parent="1" source="8B_Xu-iO_OuKSOJBWG5p-60" target="IkHTjljyscy81kLlPzbf-1">
          <mxGeometry relative="1" as="geometry" />
        </mxCell>
        <mxCell id="8B_Xu-iO_OuKSOJBWG5p-60" value="Users" style="rounded=1;whiteSpace=wrap;html=1;" parent="1" vertex="1">
          <mxGeometry x="100" y="120" width="120" height="60" as="geometry" />
        </mxCell>
        <mxCell id="8B_Xu-iO_OuKSOJBWG5p-62" style="edgeStyle=orthogonalEdgeStyle;rounded=0;orthogonalLoop=1;jettySize=auto;html=1;entryX=0;entryY=0.5;entryDx=0;entryDy=0;" parent="1" source="8B_Xu-iO_OuKSOJBWG5p-61" target="8B_Xu-iO_OuKSOJBWG5p-5" edge="1">
          <mxGeometry relative="1" as="geometry" />
        </mxCell>
        <mxCell id="8B_Xu-iO_OuKSOJBWG5p-61" value="ExpenseGroup" style="rounded=1;whiteSpace=wrap;html=1;" parent="1" vertex="1">
          <mxGeometry x="110" y="500" width="120" height="60" as="geometry" />
        </mxCell>
        <mxCell id="IkHTjljyscy81kLlPzbf-4" value="" style="edgeStyle=orthogonalEdgeStyle;rounded=0;orthogonalLoop=1;jettySize=auto;html=1;" edge="1" parent="1" source="IkHTjljyscy81kLlPzbf-1" target="IkHTjljyscy81kLlPzbf-3">
          <mxGeometry relative="1" as="geometry" />
        </mxCell>
        <mxCell id="IkHTjljyscy81kLlPzbf-1" value="UserRoles" style="whiteSpace=wrap;html=1;rounded=1;" vertex="1" parent="1">
          <mxGeometry x="300" y="120" width="120" height="60" as="geometry" />
        </mxCell>
        <mxCell id="IkHTjljyscy81kLlPzbf-3" value="Roles" style="whiteSpace=wrap;html=1;rounded=1;" vertex="1" parent="1">
          <mxGeometry x="500" y="120" width="120" height="60" as="geometry" />
        </mxCell>
      </root>
    </mxGraphModel>
  </diagram>
  <diagram id="xG8s8uY2DWMgFp2fs0Cn" name="BudgetRequest_Fiscal">
    <mxGraphModel dx="1418" dy="756" grid="1" gridSize="10" guides="1" tooltips="1" connect="1" arrows="1" fold="1" page="1" pageScale="1" pageWidth="850" pageHeight="1100" math="0" shadow="0">
      <root>
        <mxCell id="0" />
        <mxCell id="1" parent="0" />
        <mxCell id="S4hL_j3XUa5YLwbGHQZx-4" value="" style="edgeStyle=orthogonalEdgeStyle;rounded=0;orthogonalLoop=1;jettySize=auto;html=1;" parent="1" source="S4hL_j3XUa5YLwbGHQZx-2" target="S4hL_j3XUa5YLwbGHQZx-3" edge="1">
          <mxGeometry relative="1" as="geometry" />
        </mxCell>
        <mxCell id="S4hL_j3XUa5YLwbGHQZx-8" value="" style="edgeStyle=orthogonalEdgeStyle;rounded=0;orthogonalLoop=1;jettySize=auto;html=1;" parent="1" source="S4hL_j3XUa5YLwbGHQZx-2" target="S4hL_j3XUa5YLwbGHQZx-7" edge="1">
          <mxGeometry relative="1" as="geometry" />
        </mxCell>
        <mxCell id="S4hL_j3XUa5YLwbGHQZx-2" value="Multiple Authorizations" style="rounded=1;whiteSpace=wrap;html=1;" parent="1" vertex="1">
          <mxGeometry x="180" y="200" width="120" height="60" as="geometry" />
        </mxCell>
        <mxCell id="S4hL_j3XUa5YLwbGHQZx-6" value="" style="edgeStyle=orthogonalEdgeStyle;rounded=0;orthogonalLoop=1;jettySize=auto;html=1;" parent="1" source="S4hL_j3XUa5YLwbGHQZx-3" target="S4hL_j3XUa5YLwbGHQZx-5" edge="1">
          <mxGeometry relative="1" as="geometry" />
        </mxCell>
        <mxCell id="S4hL_j3XUa5YLwbGHQZx-3" value="Vouchers" style="whiteSpace=wrap;html=1;rounded=1;" parent="1" vertex="1">
          <mxGeometry x="380" y="260" width="120" height="60" as="geometry" />
        </mxCell>
        <mxCell id="S4hL_j3XUa5YLwbGHQZx-5" value="Journals" style="whiteSpace=wrap;html=1;rounded=1;" parent="1" vertex="1">
          <mxGeometry x="520" y="340" width="120" height="60" as="geometry" />
        </mxCell>
        <mxCell id="S4hL_j3XUa5YLwbGHQZx-7" value="Case&amp;nbsp; Services" style="whiteSpace=wrap;html=1;rounded=1;" parent="1" vertex="1">
          <mxGeometry x="90" y="80" width="120" height="60" as="geometry" />
        </mxCell>
      </root>
    </mxGraphModel>
  </diagram>
</mxfile>
